<?xml version="1.0" encoding="UTF-8" standalone="no"?>
<!DOCTYPE svg PUBLIC "-//W3C//DTD SVG 1.1//EN" "http://www.w3.org/Graphics/SVG/1.1/DTD/svg11.dtd">
<svg width="100%" height="100%" viewBox="0 0 512 512" version="1.1" xmlns="http://www.w3.org/2000/svg" xmlns:xlink="http://www.w3.org/1999/xlink" xml:space="preserve" xmlns:serif="http://www.serif.com/" style="fill-rule:evenodd;clip-rule:evenodd;stroke-linejoin:round;stroke-miterlimit:2;">
    <path d="M458.903,114.538C447.797,99.392 432.316,81.688 415.314,64.686C398.312,47.684 380.608,32.204 365.462,21.097C339.675,2.187 327.166,0 320,0L72,0C49.944,0 32,17.944 32,40L32,472C32,494.056 49.944,512 72,512L440,512C462.056,512 480,494.056 480,472L480,160C480,152.834 477.814,140.325 458.903,114.538ZM392.687,87.313C408.037,102.663 420.087,116.512 428.977,128L352,128L352,51.027C363.492,59.917 377.339,71.966 392.687,87.313ZM448,472C448,476.336 444.336,480 440,480L72,480C67.664,480 64,476.336 64,472L64,40C64,35.664 67.664,32 72,32C72,32 319.978,31.999 320,32L320,144C320,152.836 327.163,160 336,160L448,160L448,472Z" style="fill-rule:nonzero;"/>
    <g transform="matrix(1,0,0,1,-16,32)">
        <circle cx="160" cy="192" r="16"/>
    </g>
    <path d="M176,240L176,208L368,208L368.103,208C376.886,208.056 384,215.204 384,224C384,232.831 376.831,240 368,240L176,240Z"/>
    <g transform="matrix(1,0,0,1,-16,96)">
        <circle cx="160" cy="192" r="16"/>
    </g>
    <g transform="matrix(1,0,0,1,0,64)">
        <path d="M176,240L176,208L368,208L368.103,208C376.886,208.056 384,215.204 384,224C384,232.831 376.831,240 368,240L176,240Z"/>
    </g>
    <g transform="matrix(1,0,0,1,-16,160)">
        <circle cx="160" cy="192" r="16"/>
    </g>
    <g transform="matrix(1,0,0,1,0,128)">
        <path d="M176,240L176,208L368,208L368.103,208C376.886,208.056 384,215.204 384,224C384,232.831 376.831,240 368,240L176,240Z"/>
    </g>
    <g transform="matrix(1,0,0,1,-16,224)">
        <circle cx="160" cy="192" r="16"/>
    </g>
    <g transform="matrix(1,0,0,1,0,192)">
        <path d="M176,240L176,208L368,208L368.103,208C376.886,208.056 384,215.204 384,224C384,232.831 376.831,240 368,240L176,240Z"/>
    </g>
</svg>
